<?xml version="1.0" encoding="UTF-8"?>
<svg xmlns="http://www.w3.org/2000/svg" xmlns:xlink="http://www.w3.org/1999/xlink" width="40px" height="40px" viewBox="0 0 40 40" version="1.1">
<g id="surface1">
<path style=" stroke:none;fill-rule:nonzero;fill:rgb(64.705884%,0%,39.215687%);fill-opacity:1;" d="M 29.765625 18.421875 C 33.765625 18.421875 37.046875 15.21875 37.046875 11.21875 C 37.046875 7.21875 33.765625 4 29.765625 4 C 25.765625 4 22.484375 7.21875 22.484375 11.21875 C 22.484375 15.21875 25.765625 18.421875 29.765625 18.421875 Z M 29.765625 8.0625 C 31.46875 8.0625 32.859375 9.4375 32.859375 11.140625 C 32.859375 12.859375 31.46875 14.234375 29.765625 14.234375 C 28.0625 14.234375 26.6875 12.859375 26.6875 11.140625 C 26.6875 9.4375 28.0625 8.0625 29.765625 8.0625 Z M 29.765625 8.0625 "/>
<path style=" stroke:none;fill-rule:nonzero;fill:rgb(64.705884%,0%,39.215687%);fill-opacity:1;" d="M 29.765625 21.578125 C 25.765625 21.578125 22.484375 24.78125 22.484375 28.78125 C 22.484375 32.78125 25.765625 36 29.765625 36 C 33.765625 36 37.046875 32.78125 37.046875 28.78125 C 37.046875 24.78125 33.765625 21.578125 29.765625 21.578125 Z M 29.765625 31.875 C 28.0625 31.875 26.6875 30.484375 26.6875 28.78125 C 26.6875 27.078125 28.0625 25.703125 29.765625 25.703125 C 31.46875 25.703125 32.859375 27.078125 32.859375 28.78125 C 32.859375 30.484375 31.46875 31.875 29.765625 31.875 Z M 29.765625 31.875 "/>
<path style=" stroke:none;fill-rule:nonzero;fill:rgb(64.705884%,0%,39.215687%);fill-opacity:1;" d="M 14.953125 21.578125 C 13.703125 21.578125 12.59375 21.96875 11.671875 22.6875 C 10.75 22.03125 9.640625 21.578125 8.390625 21.578125 C 5.375 21.578125 2.953125 24 2.953125 27.015625 L 2.953125 36.0625 L 7.140625 36.0625 L 7.140625 26.953125 C 7.140625 26.296875 7.671875 25.703125 8.390625 25.703125 C 9.109375 25.703125 9.640625 26.234375 9.640625 26.953125 L 9.640625 36.0625 L 13.765625 36.0625 L 13.765625 26.953125 C 13.765625 26.296875 14.296875 25.703125 15.015625 25.703125 C 15.671875 25.703125 16.265625 26.234375 16.265625 26.953125 L 16.265625 36.0625 L 20.390625 36.0625 L 20.390625 26.953125 C 20.390625 24 17.96875 21.578125 14.953125 21.578125 Z M 14.953125 21.578125 "/>
<path style=" stroke:none;fill-rule:nonzero;fill:rgb(64.705884%,0%,39.215687%);fill-opacity:1;" d="M 14.953125 3.9375 C 13.703125 3.9375 12.59375 4.328125 11.671875 5.046875 C 10.75 4.390625 9.640625 3.9375 8.390625 3.9375 C 5.375 3.9375 2.953125 6.359375 2.953125 9.375 L 2.953125 18.421875 L 7.140625 18.421875 L 7.140625 9.3125 C 7.140625 8.65625 7.671875 8.0625 8.390625 8.0625 C 9.109375 8.0625 9.640625 8.59375 9.640625 9.3125 L 9.640625 18.421875 L 13.765625 18.421875 L 13.765625 9.3125 C 13.765625 8.65625 14.296875 8.0625 15.015625 8.0625 C 15.671875 8.0625 16.265625 8.59375 16.265625 9.3125 L 16.265625 18.421875 L 20.453125 18.421875 L 20.453125 9.375 C 20.390625 6.359375 17.96875 3.9375 14.953125 3.9375 Z M 14.953125 3.9375 "/>
</g>
</svg>
